<mxfile host="app.diagrams.net" modified="2023-04-23T17:49:33.382Z" agent="Mozilla/5.0 (Windows NT 10.0; Win64; x64; rv:109.0) Gecko/20100101 Firefox/113.0" etag="YR7Z_vkJKrEnS3YPWDvs" version="21.2.1">
  <diagram name="Страница 1" id="FKgclY8mvpm1GT28nI_9">
    <mxGraphModel dx="1159" dy="1056" grid="1" gridSize="10" guides="1" tooltips="1" connect="1" arrows="1" fold="1" page="1" pageScale="1" pageWidth="827" pageHeight="1169" math="0" shadow="0">
      <root>
        <mxCell id="0" />
        <mxCell id="1" parent="0" />
        <mxCell id="nuW5QYSNf9gHXcITZZhP-1" value="&lt;font style=&quot;font-size: 19px;&quot;&gt;Alice&lt;/font&gt;" style="ellipse;whiteSpace=wrap;html=1;aspect=fixed;fontSize=19;" vertex="1" parent="1">
          <mxGeometry x="20" y="110" width="90" height="90" as="geometry" />
        </mxCell>
        <mxCell id="nuW5QYSNf9gHXcITZZhP-2" value="&lt;font style=&quot;font-size: 19px;&quot;&gt;1&lt;/font&gt;" style="ellipse;whiteSpace=wrap;html=1;aspect=fixed;fontSize=19;" vertex="1" parent="1">
          <mxGeometry x="50" y="110" width="30" height="30" as="geometry" />
        </mxCell>
        <mxCell id="nuW5QYSNf9gHXcITZZhP-3" value="Bob" style="ellipse;whiteSpace=wrap;html=1;aspect=fixed;fontSize=19;" vertex="1" parent="1">
          <mxGeometry x="140" y="110" width="90" height="90" as="geometry" />
        </mxCell>
        <mxCell id="nuW5QYSNf9gHXcITZZhP-4" value="2" style="ellipse;whiteSpace=wrap;html=1;aspect=fixed;fontSize=19;" vertex="1" parent="1">
          <mxGeometry x="170" y="110" width="30" height="30" as="geometry" />
        </mxCell>
        <mxCell id="nuW5QYSNf9gHXcITZZhP-19" value="Charlie" style="ellipse;whiteSpace=wrap;html=1;aspect=fixed;fontSize=19;" vertex="1" parent="1">
          <mxGeometry x="250" y="110" width="90" height="90" as="geometry" />
        </mxCell>
        <mxCell id="nuW5QYSNf9gHXcITZZhP-20" value="3" style="ellipse;whiteSpace=wrap;html=1;aspect=fixed;fontSize=19;" vertex="1" parent="1">
          <mxGeometry x="280" y="110" width="30" height="30" as="geometry" />
        </mxCell>
        <mxCell id="nuW5QYSNf9gHXcITZZhP-21" value="Dave" style="ellipse;whiteSpace=wrap;html=1;aspect=fixed;fontSize=19;" vertex="1" parent="1">
          <mxGeometry x="360" y="110" width="90" height="90" as="geometry" />
        </mxCell>
        <mxCell id="nuW5QYSNf9gHXcITZZhP-22" value="4" style="ellipse;whiteSpace=wrap;html=1;aspect=fixed;fontSize=19;" vertex="1" parent="1">
          <mxGeometry x="390" y="110" width="30" height="30" as="geometry" />
        </mxCell>
        <mxCell id="nuW5QYSNf9gHXcITZZhP-23" value="Eve" style="ellipse;whiteSpace=wrap;html=1;aspect=fixed;fontSize=19;" vertex="1" parent="1">
          <mxGeometry x="480" y="110" width="90" height="90" as="geometry" />
        </mxCell>
        <mxCell id="nuW5QYSNf9gHXcITZZhP-24" value="5" style="ellipse;whiteSpace=wrap;html=1;aspect=fixed;fontSize=19;" vertex="1" parent="1">
          <mxGeometry x="510" y="110" width="30" height="30" as="geometry" />
        </mxCell>
        <mxCell id="nuW5QYSNf9gHXcITZZhP-25" value="Frank" style="ellipse;whiteSpace=wrap;html=1;aspect=fixed;fontSize=19;" vertex="1" parent="1">
          <mxGeometry x="600" y="110" width="90" height="90" as="geometry" />
        </mxCell>
        <mxCell id="nuW5QYSNf9gHXcITZZhP-26" value="6" style="ellipse;whiteSpace=wrap;html=1;aspect=fixed;fontSize=19;" vertex="1" parent="1">
          <mxGeometry x="630" y="110" width="30" height="30" as="geometry" />
        </mxCell>
        <mxCell id="nuW5QYSNf9gHXcITZZhP-37" value="Grace" style="ellipse;whiteSpace=wrap;html=1;aspect=fixed;fontSize=19;" vertex="1" parent="1">
          <mxGeometry x="710" y="110" width="90" height="90" as="geometry" />
        </mxCell>
        <mxCell id="nuW5QYSNf9gHXcITZZhP-38" value="7" style="ellipse;whiteSpace=wrap;html=1;aspect=fixed;fontSize=19;" vertex="1" parent="1">
          <mxGeometry x="740" y="110" width="30" height="30" as="geometry" />
        </mxCell>
        <mxCell id="nuW5QYSNf9gHXcITZZhP-39" value="Hank" style="ellipse;whiteSpace=wrap;html=1;aspect=fixed;fontSize=19;" vertex="1" parent="1">
          <mxGeometry x="20" y="230" width="90" height="90" as="geometry" />
        </mxCell>
        <mxCell id="nuW5QYSNf9gHXcITZZhP-40" value="8" style="ellipse;whiteSpace=wrap;html=1;aspect=fixed;fontSize=19;" vertex="1" parent="1">
          <mxGeometry x="50" y="230" width="30" height="30" as="geometry" />
        </mxCell>
        <mxCell id="nuW5QYSNf9gHXcITZZhP-41" value="Ivy" style="ellipse;whiteSpace=wrap;html=1;aspect=fixed;fontSize=19;" vertex="1" parent="1">
          <mxGeometry x="140" y="230" width="90" height="90" as="geometry" />
        </mxCell>
        <mxCell id="nuW5QYSNf9gHXcITZZhP-42" value="9" style="ellipse;whiteSpace=wrap;html=1;aspect=fixed;fontSize=19;" vertex="1" parent="1">
          <mxGeometry x="170" y="230" width="30" height="30" as="geometry" />
        </mxCell>
        <mxCell id="nuW5QYSNf9gHXcITZZhP-43" value="John" style="ellipse;whiteSpace=wrap;html=1;aspect=fixed;fontSize=19;" vertex="1" parent="1">
          <mxGeometry x="250" y="230" width="90" height="90" as="geometry" />
        </mxCell>
        <mxCell id="nuW5QYSNf9gHXcITZZhP-44" value="10" style="ellipse;whiteSpace=wrap;html=1;aspect=fixed;fontSize=19;" vertex="1" parent="1">
          <mxGeometry x="280" y="230" width="30" height="30" as="geometry" />
        </mxCell>
        <mxCell id="nuW5QYSNf9gHXcITZZhP-45" value="Jane" style="ellipse;whiteSpace=wrap;html=1;aspect=fixed;fontSize=19;" vertex="1" parent="1">
          <mxGeometry x="360" y="230" width="90" height="90" as="geometry" />
        </mxCell>
        <mxCell id="nuW5QYSNf9gHXcITZZhP-46" value="11" style="ellipse;whiteSpace=wrap;html=1;aspect=fixed;fontSize=19;" vertex="1" parent="1">
          <mxGeometry x="390" y="230" width="30" height="30" as="geometry" />
        </mxCell>
        <mxCell id="nuW5QYSNf9gHXcITZZhP-47" value="David" style="ellipse;whiteSpace=wrap;html=1;aspect=fixed;fontSize=19;" vertex="1" parent="1">
          <mxGeometry x="480" y="230" width="90" height="90" as="geometry" />
        </mxCell>
        <mxCell id="nuW5QYSNf9gHXcITZZhP-48" value="12" style="ellipse;whiteSpace=wrap;html=1;aspect=fixed;fontSize=19;" vertex="1" parent="1">
          <mxGeometry x="510" y="230" width="30" height="30" as="geometry" />
        </mxCell>
        <mxCell id="nuW5QYSNf9gHXcITZZhP-49" value="Emily" style="ellipse;whiteSpace=wrap;html=1;aspect=fixed;fontSize=19;" vertex="1" parent="1">
          <mxGeometry x="600" y="230" width="90" height="90" as="geometry" />
        </mxCell>
        <mxCell id="nuW5QYSNf9gHXcITZZhP-50" value="13" style="ellipse;whiteSpace=wrap;html=1;aspect=fixed;fontSize=19;" vertex="1" parent="1">
          <mxGeometry x="630" y="230" width="30" height="30" as="geometry" />
        </mxCell>
        <mxCell id="nuW5QYSNf9gHXcITZZhP-51" value="Mike" style="ellipse;whiteSpace=wrap;html=1;aspect=fixed;fontSize=19;" vertex="1" parent="1">
          <mxGeometry x="710" y="230" width="90" height="90" as="geometry" />
        </mxCell>
        <mxCell id="nuW5QYSNf9gHXcITZZhP-52" value="14" style="ellipse;whiteSpace=wrap;html=1;aspect=fixed;fontSize=19;" vertex="1" parent="1">
          <mxGeometry x="740" y="230" width="30" height="30" as="geometry" />
        </mxCell>
        <mxCell id="nuW5QYSNf9gHXcITZZhP-67" value="Jessica" style="ellipse;whiteSpace=wrap;html=1;aspect=fixed;fontSize=19;" vertex="1" parent="1">
          <mxGeometry x="20" y="340" width="90" height="90" as="geometry" />
        </mxCell>
        <mxCell id="nuW5QYSNf9gHXcITZZhP-68" value="15" style="ellipse;whiteSpace=wrap;html=1;aspect=fixed;fontSize=19;" vertex="1" parent="1">
          <mxGeometry x="50" y="340" width="30" height="30" as="geometry" />
        </mxCell>
        <mxCell id="nuW5QYSNf9gHXcITZZhP-69" value="Alex" style="ellipse;whiteSpace=wrap;html=1;aspect=fixed;fontSize=19;" vertex="1" parent="1">
          <mxGeometry x="140" y="340" width="90" height="90" as="geometry" />
        </mxCell>
        <mxCell id="nuW5QYSNf9gHXcITZZhP-70" value="16" style="ellipse;whiteSpace=wrap;html=1;aspect=fixed;fontSize=19;" vertex="1" parent="1">
          <mxGeometry x="170" y="340" width="30" height="30" as="geometry" />
        </mxCell>
        <mxCell id="nuW5QYSNf9gHXcITZZhP-71" value="Megan" style="ellipse;whiteSpace=wrap;html=1;aspect=fixed;fontSize=19;" vertex="1" parent="1">
          <mxGeometry x="250" y="340" width="90" height="90" as="geometry" />
        </mxCell>
        <mxCell id="nuW5QYSNf9gHXcITZZhP-72" value="17" style="ellipse;whiteSpace=wrap;html=1;aspect=fixed;fontSize=19;" vertex="1" parent="1">
          <mxGeometry x="280" y="340" width="30" height="30" as="geometry" />
        </mxCell>
        <mxCell id="nuW5QYSNf9gHXcITZZhP-73" value="Eric" style="ellipse;whiteSpace=wrap;html=1;aspect=fixed;fontSize=19;" vertex="1" parent="1">
          <mxGeometry x="360" y="340" width="90" height="90" as="geometry" />
        </mxCell>
        <mxCell id="nuW5QYSNf9gHXcITZZhP-74" value="18" style="ellipse;whiteSpace=wrap;html=1;aspect=fixed;fontSize=19;" vertex="1" parent="1">
          <mxGeometry x="390" y="340" width="30" height="30" as="geometry" />
        </mxCell>
        <mxCell id="nuW5QYSNf9gHXcITZZhP-75" value="Olivia" style="ellipse;whiteSpace=wrap;html=1;aspect=fixed;fontSize=19;" vertex="1" parent="1">
          <mxGeometry x="480" y="340" width="90" height="90" as="geometry" />
        </mxCell>
        <mxCell id="nuW5QYSNf9gHXcITZZhP-76" value="19" style="ellipse;whiteSpace=wrap;html=1;aspect=fixed;fontSize=19;" vertex="1" parent="1">
          <mxGeometry x="510" y="340" width="30" height="30" as="geometry" />
        </mxCell>
        <mxCell id="nuW5QYSNf9gHXcITZZhP-77" value="Jack" style="ellipse;whiteSpace=wrap;html=1;aspect=fixed;fontSize=19;" vertex="1" parent="1">
          <mxGeometry x="600" y="340" width="90" height="90" as="geometry" />
        </mxCell>
        <mxCell id="nuW5QYSNf9gHXcITZZhP-78" value="20" style="ellipse;whiteSpace=wrap;html=1;aspect=fixed;fontSize=19;" vertex="1" parent="1">
          <mxGeometry x="630" y="340" width="30" height="30" as="geometry" />
        </mxCell>
        <mxCell id="nuW5QYSNf9gHXcITZZhP-79" value="Isabella" style="ellipse;whiteSpace=wrap;html=1;aspect=fixed;fontSize=19;" vertex="1" parent="1">
          <mxGeometry x="710" y="340" width="90" height="90" as="geometry" />
        </mxCell>
        <mxCell id="nuW5QYSNf9gHXcITZZhP-80" value="21" style="ellipse;whiteSpace=wrap;html=1;aspect=fixed;fontSize=19;" vertex="1" parent="1">
          <mxGeometry x="740" y="340" width="30" height="30" as="geometry" />
        </mxCell>
      </root>
    </mxGraphModel>
  </diagram>
</mxfile>
